<svg width="14" height="6" viewBox="0 0 14 6" fill="none" xmlns="http://www.w3.org/2000/svg">
<path d="M6.012 0.812L4.842 5H3.852L3.066 2.018L2.244 5L1.26 5.006L0.132 0.812H1.032L1.77 4.064L2.622 0.812H3.558L4.362 4.046L5.106 0.812H6.012ZM6.98648 1.28C6.83848 1.28 6.71448 1.234 6.61448 1.142C6.51848 1.046 6.47048 0.928 6.47048 0.788C6.47048 0.648 6.51848 0.532 6.61448 0.44C6.71448 0.344 6.83848 0.296 6.98648 0.296C7.13448 0.296 7.25648 0.344 7.35248 0.44C7.45248 0.532 7.50248 0.648 7.50248 0.788C7.50248 0.928 7.45248 1.046 7.35248 1.142C7.25648 1.234 7.13448 1.28 6.98648 1.28ZM7.40048 1.676V5H6.56048V1.676H7.40048ZM10.0724 1.628C10.4684 1.628 10.7884 1.754 11.0324 2.006C11.2764 2.254 11.3984 2.602 11.3984 3.05V5H10.5584V3.164C10.5584 2.9 10.4924 2.698 10.3604 2.558C10.2284 2.414 10.0484 2.342 9.82041 2.342C9.58841 2.342 9.40441 2.414 9.26841 2.558C9.13641 2.698 9.07041 2.9 9.07041 3.164V5H8.23041V1.676H9.07041V2.09C9.18241 1.946 9.32441 1.834 9.49641 1.754C9.67241 1.67 9.86441 1.628 10.0724 1.628ZM12.5692 5.042C12.4172 5.042 12.2912 4.996 12.1912 4.904C12.0952 4.808 12.0472 4.69 12.0472 4.55C12.0472 4.41 12.0952 4.294 12.1912 4.202C12.2912 4.106 12.4172 4.058 12.5692 4.058C12.7172 4.058 12.8392 4.106 12.9352 4.202C13.0312 4.294 13.0792 4.41 13.0792 4.55C13.0792 4.69 13.0312 4.808 12.9352 4.904C12.8392 4.996 12.7172 5.042 12.5692 5.042Z" fill="white"/>
</svg>
